<svg width="61" height="61" viewBox="0 0 61 61" fill="none" xmlns="http://www.w3.org/2000/svg">
<g clip-path="url(#clip0_66_4659)">
<path d="M13.2689 0.273438H46.9889C54.2461 0.273438 60.1289 6.15625 60.1289 13.4134V47.1334C60.1289 54.3906 54.2461 60.2734 46.9889 60.2734H13.2689C6.01172 60.2734 0.128906 54.3906 0.128906 47.1334V13.4134C0.128906 6.15625 6.01172 0.273438 13.2689 0.273438Z" fill="url(#paint0_linear_66_4659)"/>
<path d="M19.7977 43.8791L19.8033 43.8809L17.7518 47.4341C17.003 48.7311 15.3445 49.1755 14.0475 48.4266C12.7507 47.6778 12.3061 46.0194 13.0549 44.7223L14.5662 42.1048L14.7113 41.8536C14.9702 41.4814 15.6094 40.8387 16.8879 40.9597C16.8879 40.9597 19.8966 41.2862 20.1143 42.8499C20.1143 42.8499 20.1438 43.3644 19.7977 43.8791ZM48.8937 34.8041H42.4967C42.061 34.7748 41.8709 34.6191 41.7959 34.5287L41.7912 34.5205L34.9434 22.6597L34.9345 22.6655L34.5239 22.0768C33.8508 21.0474 32.782 23.6799 32.782 23.6799C31.5059 26.6134 32.9632 29.9483 33.4711 30.9563L42.9825 47.4305C43.7311 48.7273 45.3895 49.172 46.6868 48.4229C47.9836 47.6741 48.4282 46.0156 47.6792 44.7186L45.301 40.5992C45.2548 40.4994 45.1746 40.2284 45.6624 40.2273H48.8937C50.3913 40.2273 51.6054 39.0132 51.6054 37.5155C51.6054 36.0179 50.3913 34.8038 48.8937 34.8038V34.8041ZM36.4685 38.4903C36.4685 38.4903 36.81 40.2273 35.4888 40.2273H11.8406C10.343 40.2273 9.12891 39.0132 9.12891 37.5155C9.12891 36.0179 10.343 34.8038 11.8406 34.8038H17.9203C18.9019 34.7471 19.1344 34.1804 19.1344 34.1804L19.14 34.1832L27.0759 20.4376L27.0736 20.4371C27.2182 20.1716 27.0977 19.9205 27.0769 19.8809L24.4559 15.3413C23.707 14.0445 24.1514 12.3859 25.4484 11.6373C26.7455 10.8884 28.4039 11.3326 29.1527 12.6296L30.3682 14.735L31.5816 12.6334C32.3304 11.3366 33.9888 10.8919 35.2859 11.641C36.5829 12.3898 37.0273 14.048 36.2784 15.3451L25.2352 34.4724C25.1869 34.5889 25.1721 34.7717 25.5314 34.8038H32.1324L32.1338 34.8683C32.1338 34.8683 35.9489 34.9276 36.4685 38.4903Z" fill="white"/>
</g>
<defs>
<linearGradient id="paint0_linear_66_4659" x1="30.1289" y1="0.273438" x2="30.1289" y2="60.2734" gradientUnits="userSpaceOnUse">
<stop stop-color="#17C9FB"/>
<stop offset="1" stop-color="#1A74E8"/>
</linearGradient>
<clipPath id="clip0_66_4659">
<rect width="60" height="60" fill="white" transform="translate(0.128906 0.273438)"/>
</clipPath>
</defs>
</svg>
