<svg width="25" height="26" viewBox="0 0 25 26" fill="none" xmlns="http://www.w3.org/2000/svg">
<path d="M24.304 9.71487C24.2276 9.48962 24.0868 9.2917 23.8991 9.14554C23.7115 8.99938 23.4851 8.91138 23.248 8.89241L16.3118 8.34125L13.3102 1.69704C13.2146 1.48304 13.0592 1.30128 12.8626 1.1737C12.666 1.04611 12.4366 0.978156 12.2022 0.978028C11.9679 0.977899 11.7385 1.0456 11.5417 1.17297C11.345 1.30034 11.1893 1.48193 11.0935 1.69582L8.09195 8.34125L1.15574 8.89241C0.922692 8.91087 0.699899 8.99608 0.514013 9.13784C0.328127 9.27961 0.18702 9.47193 0.107572 9.69179C0.0281235 9.91165 0.0136992 10.1497 0.0660245 10.3776C0.11835 10.6054 0.235209 10.8134 0.402622 10.9766L5.52844 15.9734L3.71561 23.8233C3.66056 24.061 3.6782 24.3096 3.76624 24.5371C3.85428 24.7646 4.00866 24.9603 4.20933 25.0989C4.41001 25.2376 4.64772 25.3127 4.89161 25.3146C5.13551 25.3164 5.37434 25.2449 5.5771 25.1094L12.2019 20.6929L18.8266 25.1094C19.0338 25.247 19.2783 25.3178 19.527 25.3123C19.7757 25.3069 20.0167 25.2254 20.2177 25.0788C20.4187 24.9323 20.5701 24.7277 20.6513 24.4926C20.7326 24.2575 20.7399 24.0031 20.6723 23.7637L18.447 15.9771L23.9658 11.0106C24.3272 10.6846 24.4598 10.176 24.304 9.71487Z" fill="#F3CD03"/>
</svg>
